<svg width="14" height="14" viewBox="0 0 14 14" fill="none" xmlns="http://www.w3.org/2000/svg">
<path d="M7 0C7.98438 0 8.85938 0.574219 9.29688 1.42188C10.1992 1.12109 11.2109 1.33984 11.9492 2.05078C12.6602 2.76172 12.8516 3.80078 12.5781 4.70312C13.4258 5.14062 14 6.01562 14 7C14 8.01172 13.4258 8.88672 12.5781 9.32422C12.8789 10.2266 12.6602 11.2383 11.9492 11.9492C11.2109 12.6602 10.1992 12.8789 9.29688 12.6055C8.85938 13.4531 7.98438 14 7 14C5.98828 14 5.11328 13.4531 4.67578 12.6055C3.77344 12.8789 2.76172 12.6602 2.02344 11.9492C1.3125 11.2383 1.12109 10.2266 1.39453 9.32422C0.546875 8.88672 0 8.01172 0 7C0 6.01562 0.546875 5.14062 1.39453 4.70312C1.09375 3.80078 1.3125 2.76172 2.02344 2.05078C2.76172 1.33984 3.77344 1.12109 4.67578 1.42188C5.11328 0.574219 5.98828 0 7 0ZM9.625 6.15234C9.89844 5.90625 9.89844 5.49609 9.625 5.22266C9.37891 4.97656 8.96875 4.97656 8.72266 5.22266L6.125 7.84766L5.03125 6.75391C4.78516 6.50781 4.375 6.50781 4.12891 6.75391C3.85547 7.02734 3.85547 7.4375 4.12891 7.68359L5.66016 9.21484C5.90625 9.48828 6.31641 9.48828 6.5625 9.21484L9.625 6.15234Z" fill="#FEFEFE"/>
</svg>
